<?xml version="1.0" encoding="UTF-8" standalone="no"?>
<!DOCTYPE svg PUBLIC "-//W3C//DTD SVG 1.1//EN" "http://www.w3.org/Graphics/SVG/1.1/DTD/svg11.dtd">
<svg width="100%" height="100%" viewBox="0 0 100 100" version="1.1" xmlns="http://www.w3.org/2000/svg" xmlns:xlink="http://www.w3.org/1999/xlink" xml:space="preserve" xmlns:serif="http://www.serif.com/" style="fill-rule:evenodd;clip-rule:evenodd;stroke-linejoin:round;stroke-miterlimit:2;">
    <g transform="matrix(0.925624,0,0,0.925624,3.71881,3.71881)">
        <g transform="matrix(0.251101,0,0,0.251101,-12.0529,-14.2819)">
            <circle cx="176" cy="416" r="32"/>
        </g>
        <g transform="matrix(0.251101,0,0,0.251101,-12.0529,-14.2819)">
            <circle cx="400" cy="416" r="32"/>
        </g>
        <g transform="matrix(0.251101,0,0,0.251101,-12.0529,-14.2819)">
            <path d="M98.576,96L48,96C39.169,96 32,88.831 32,80C32,71.169 39.169,64 48,64L112,64C119.764,64 126.407,69.574 127.757,77.219L173.424,336L416,336C424.831,336 432,343.169 432,352C432,360.831 424.831,368 416,368L160,368C152.236,368 145.593,362.426 144.243,354.781L98.576,96Z"/>
        </g>
        <g transform="matrix(0.251101,0,0,0.251101,-12.0529,-14.2819)">
            <path d="M428.487,144L128,144C119.169,144 112,136.831 112,128C112,119.169 119.169,112 128,112C128,112 438.24,112 438.229,112C438.234,112 438.24,112 438.246,112C451.412,112 462.246,122.834 462.246,136C462.246,137.582 462.089,139.159 461.779,140.708C461.779,140.708 432.979,284.708 432.979,284.71C430.741,295.89 420.831,304.008 409.44,304L160,304C151.169,304 144,296.831 144,288C144,279.169 151.169,272 160,272L402.887,272L428.487,144ZM438.246,144L438.251,144L438.246,144Z"/>
        </g>
    </g>
</svg>
