<?xml version="1.0" encoding="UTF-8" standalone="no"?>
<!DOCTYPE svg PUBLIC "-//W3C//DTD SVG 1.1//EN" "http://www.w3.org/Graphics/SVG/1.1/DTD/svg11.dtd">
<svg width="100%" height="100%" viewBox="0 0 100 100" version="1.1" xmlns="http://www.w3.org/2000/svg" xmlns:xlink="http://www.w3.org/1999/xlink" xml:space="preserve" xmlns:serif="http://www.serif.com/" style="fill-rule:evenodd;clip-rule:evenodd;stroke-linejoin:round;stroke-miterlimit:2;">
    <g transform="matrix(0.923084,0,0,0.923084,3.84618,3.84618)">
        <g transform="matrix(0.260417,0,0,0.260417,-16.6667,-16.6667)">
            <path d="M221.09,48C126.136,48 48,126.136 48,221.09C48,316.044 126.136,394.18 221.09,394.18C316.044,394.18 394.18,316.044 394.18,221.09C394.174,126.137 316.043,48.006 221.091,48L221.09,48ZM221.089,80C143.69,80 80,143.69 80,221.09C80,298.49 143.69,362.18 221.09,362.18C298.49,362.18 362.18,298.49 362.18,221.091C362.175,143.693 298.487,80.005 221.089,80Z"/>
        </g>
        <g transform="matrix(0.260417,0,0,0.260417,-16.6667,-16.6667)">
            <path d="M326.976,349.604L436.686,459.314C442.93,465.558 453.07,465.558 459.314,459.314C465.558,453.07 465.558,442.93 459.314,436.686L349.604,326.976C343.36,320.732 333.22,320.732 326.976,326.976C320.732,333.22 320.732,343.36 326.976,349.604Z"/>
        </g>
    </g>
</svg>
